<?xml version="1.0" encoding="UTF-8" standalone="no"?>
<!-- Created with Inkscape (http://www.inkscape.org/) -->

<svg
   width="3026.6824"
   height="2688.5916"
   viewBox="0 0 3026.6824 2688.5915"
   version="1.1"
   id="svg1"
   xml:space="preserve"
   inkscape:version="1.3 (1:1.3+202307231459+0e150ed6c4)"
   sodipodi:docname="mario-s-white.svg"
   xmlns:inkscape="http://www.inkscape.org/namespaces/inkscape"
   xmlns:sodipodi="http://sodipodi.sourceforge.net/DTD/sodipodi-0.dtd"
   xmlns="http://www.w3.org/2000/svg"
   xmlns:svg="http://www.w3.org/2000/svg"><sodipodi:namedview
     id="namedview1"
     pagecolor="#ffffff"
     bordercolor="#000000"
     borderopacity="0.25"
     inkscape:showpageshadow="2"
     inkscape:pageopacity="0.0"
     inkscape:pagecheckerboard="0"
     inkscape:deskcolor="#d1d1d1"
     inkscape:document-units="px"
     inkscape:zoom="0.10081796"
     inkscape:cx="1849.8688"
     inkscape:cy="-654.64526"
     inkscape:window-width="1920"
     inkscape:window-height="996"
     inkscape:window-x="0"
     inkscape:window-y="0"
     inkscape:window-maximized="1"
     inkscape:current-layer="layer1" /><defs
     id="defs1"><rect
       x="0"
       y="499.77737"
       width="1594.7454"
       height="598.7431"
       id="rect3" /><rect
       x="102.80878"
       y="375.09302"
       width="1491.9366"
       height="806.9729"
       id="rect2" /><rect
       x="0"
       y="499.77737"
       width="1594.7454"
       height="598.7431"
       id="rect4" /><rect
       x="0"
       y="499.77737"
       width="1594.7454"
       height="598.7431"
       id="rect5" /><rect
       x="0"
       y="499.77737"
       width="1594.7454"
       height="598.7431"
       id="rect6" /><rect
       x="0"
       y="499.77737"
       width="1594.7454"
       height="598.7431"
       id="rect7" /></defs><g
     inkscape:label="Layer 1"
     inkscape:groupmode="layer"
     id="layer1"
     transform="translate(-222.58562,126.83651)"><path
       style="fill:#ffffff;stroke-width:1;fill-opacity:1;stroke:#ffffff;stroke-opacity:1"
       d="m 1509.9014,2109.5275 c -134.321,-253.1858 -256.8225,-481.554 -272.2254,-507.4846 l -28.0054,-47.1469 84.5967,0.031 84.5968,0.031 40.0504,76.1256 c 22.0275,41.8693 107.5878,198.9694 190.134,349.1115 l 150.0833,272.9857 184.8931,-338.266 c 101.6906,-186.0461 189.8228,-343.5353 195.8491,-349.9757 6.0262,-6.4405 43.9698,-9.7046 84.3192,-7.2534 l 73.3621,4.4567 -263.5048,495.6811 c -144.9281,272.6247 -267.2002,499.361 -271.7169,503.8583 -4.5168,4.4971 -118.111,-198.9754 -252.4322,-452.1613 z M 621.23689,354.39986 516.41199,169.5322 612.11439,121.28503 C 741.03889,56.289415 1012.9047,-32.827655 1190.2768,-68.235625 1779.805,-185.92026 2316.2532,-126.59939 2819.9552,111.97561 l 135.4865,64.17222 -94.4911,178.012 -94.4909,178.01187 -80.8893,4.35062 c -44.4886,2.39288 -80.8885,0.84719 -80.8885,-3.43475 0,-4.28213 30.9772,-70.14536 68.8385,-146.36279 C 2752.637,227.45547 2759.7535,244.0757 2582.9221,175.13865 2318.8891,72.206615 2083.6484,31.650505 1751.3625,31.775395 c -247.2085,0.0873 -427.7168,21.99207 -653.928,79.333605 -120.60611,30.57204 -342.57811,102.84596 -361.98361,117.86159 -2.8148,2.17801 29.8253,67.91492 72.5334,146.08207 42.7085,78.16714 79.8276,147.12831 82.487,153.24724 2.6598,6.1188 -33.2445,11.08983 -79.7869,11.0464 l -84.6225,-0.0723 z"
       id="path1"
       sodipodi:nodetypes="cscccssccsscsscccsccssscccsscscssssc" /><g
       id="g7"
       transform="matrix(1.3751494,0,0,1.3876027,-563.38434,-78.306956)"
       style="stroke-width:0.723923;fill:#ffffff;fill-opacity:1;stroke:#ffffff;stroke-opacity:1"><text
         xml:space="preserve"
         transform="translate(572.95771,167.02026)"
         id="text2"
         style="font-style:normal;font-variant:normal;font-weight:normal;font-stretch:normal;font-size:293.333px;line-height:0.1;font-family:'Croissant One';-inkscape-font-specification:'Croissant One';white-space:pre;shape-inside:url(#rect3);display:inline;fill:#ffffff;fill-opacity:1;fill-rule:evenodd;stroke:#ffffff;stroke-width:14.4785;stroke-opacity:1"><tspan
           x="0"
           y="589.79845"
           id="tspan4">Mario's</tspan></text><text
         xml:space="preserve"
         transform="translate(1877.3473,164.82026)"
         id="text5"
         style="font-style:normal;font-variant:normal;font-weight:normal;font-stretch:normal;font-size:293.333px;line-height:0.1;font-family:'Croissant One';-inkscape-font-specification:'Croissant One';white-space:pre;shape-inside:url(#rect6);display:inline;fill:#ffffff;fill-opacity:1;fill-rule:evenodd;stroke:#ffffff;stroke-width:14.4785;stroke-opacity:1"><tspan
           x="0"
           y="589.79845"
           id="tspan5">Pizza</tspan></text><text
         xml:space="preserve"
         transform="translate(1367.7691,480.11171)"
         id="text6"
         style="font-style:normal;font-variant:normal;font-weight:normal;font-stretch:normal;font-size:293.333px;line-height:0.1;font-family:'Croissant One';-inkscape-font-specification:'Croissant One';white-space:pre;shape-inside:url(#rect7);display:inline;fill:#ffffff;fill-opacity:1;fill-rule:evenodd;stroke:#ffffff;stroke-width:14.4785;stroke-opacity:1"><tspan
           x="0"
           y="589.79845"
           id="tspan6">Villa</tspan></text></g></g></svg>
